<svg xmlns="http://www.w3.org/2000/svg" viewBox="0 0 24 24" width="20" height="20" fill="none"><path d="M20 1.75H9A2.752 2.752 0 0 0 6.25 4.5v3.25H4a2.752 2.752 0 0 0-2.75 2.75v10A2.752 2.752 0 0 0 4 23.25h10a2.752 2.752 0 0 0 2.75-2.75v-2.25H20a2.752 2.752 0 0 0 2.75-2.75v-11A2.752 2.752 0 0 0 20 1.75zM15.25 20.5c0 .689-.561 1.25-1.25 1.25H4c-.689 0-1.25-.561-1.25-1.25v-10c0-.689.561-1.25 1.25-1.25h2.25v6.25A2.752 2.752 0 0 0 9 18.25h6.25v2.25zm6-5c0 .689-.561 1.25-1.25 1.25H9c-.689 0-1.25-.561-1.25-1.25v-11c0-.689.561-1.25 1.25-1.25h11c.689 0 1.25.561 1.25 1.25v11zM18 7.25h-6.5a.75.75 0 0 0 0 1.5H18a.75.75 0 0 0 0-1.5zm-2 4.5h-2.5a.75.75 0 0 0 0 1.5H16a.75.75 0 0 0 0-1.5z" fill="#fff"/></svg>